Coordinates
version=1
nRows=6
nColumns=36
inDegrees=yes

Units are S.I. units (second, meters, Newtons, ...)
If the header above contains a line with 'inDegrees', this indicates whether rotational values are in degrees (yes) or radians (no).

endheader
time	pelvis_tilt	pelvis_list	pelvis_rotation	pelvis_tx	pelvis_ty	pelvis_tz	hip_flexion_r	hip_adduction_r	hip_rotation_r	knee_angle_r	knee_angle_r_beta	ankle_angle_r	subtalar_angle_r	mtp_angle_r	hip_flexion_l	hip_adduction_l	hip_rotation_l	knee_angle_l	knee_angle_l_beta	ankle_angle_l	subtalar_angle_l	mtp_angle_l	lumbar_extension	lumbar_bending	lumbar_rotation	arm_flex_r	arm_add_r	arm_rot_r	elbow_flex_r	pro_sup_r	arm_flex_l	arm_add_l	arm_rot_l	elbow_flex_l	pro_sup_l
      0.93333330	     -7.01857223	     -2.41455907	     13.22570803	     -0.26071969	      1.02573463	      0.04633265	     31.67693635	      4.30809753	      7.77527254	     67.81687255	      1.18362771	     38.27167012	    -19.76521855	     -7.49999587	     28.74356874	      2.20676580	      1.78120815	     66.52390852	      1.16106124	     32.52705502	    -13.53903035	     -7.49999587	    -13.10132731	     -4.53288104	      2.93316483	     33.66150663	    -31.98007407	      8.51869822	    102.08877506	     94.78668340	     47.14630044	    -37.50182373	     11.66895081	    106.68826034	     92.97512389
      0.95000000	     -8.68995657	     -3.01951669	     13.66178846	     -0.24797441	      1.04751111	      0.04360976	     30.57537161	      4.07123117	      7.70802910	     63.06355141	      1.10066661	     35.40937075	    -20.26733716	     -7.49999625	     27.68196049	      1.86142134	      2.02977751	     61.57857866	      1.07474895	     29.26364027	    -13.33402014	     -7.49999625	     -9.41768008	     -3.79041257	      3.81101421	     41.05600249	    -37.60333576	     15.63076023	    112.70511131	     94.27448461	     50.95445856	    -40.74897312	     15.59885050	    107.78446198	     92.51040020
      0.96666670	     -9.49698946	     -3.22111023	     14.25824111	     -0.21307727	      1.07114044	      0.02034139	     25.95427161	      2.46849405	      6.69990671	     55.64007229	      0.97110246	     32.09491098	    -19.84588806	     -7.49999634	     23.71865728	      2.01996439	      1.38539035	     55.34995618	      0.96603898	     24.33636747	    -12.75467690	     -7.49999634	     -4.86979599	     -2.59231293	      4.66596382	     43.19984631	    -44.31333855	     22.25816124	    124.57217768	     95.18782135	     49.45784707	    -42.98973858	     19.41744165	    110.79533506	     93.09866352
      0.98333330	     -9.31097084	     -3.18727222	     14.27782039	     -0.19869742	      1.10811066	      0.01605185	     20.11046385	      1.02930646	      5.46805896	     46.78558227	      0.81656245	     27.62917199	    -17.64074766	     -7.49999652	     18.26457377	      1.81043195	      0.54431675	     46.82883167	      0.81731730	     18.51703049	    -13.10596718	     -7.49999652	     -2.16283965	     -2.23534671	      3.63674820	     44.92330581	    -45.50049481	     22.20735003	    123.17020104	     95.03405663	     50.96709202	    -45.21555685	     21.29752350	    111.24034559	     92.98366394
      1.00000000	     -9.24293047	     -3.07285021	     13.78317707	     -0.17557740	      1.14771079	      0.01462660	     14.53988115	     -0.10596882	      4.52984867	     37.77142158	      0.65923567	     21.46968906	    -14.56487096	     -7.49999747	     12.90945109	      1.27210722	     -0.95019388	     37.80028127	      0.65973937	     12.39865917	    -12.04942242	     -7.49999747	      0.56498532	     -1.85204952	      1.65899780	     53.49770992	    -42.00033983	     30.95035933	    116.65751917	     92.70459475	     46.73546674	    -48.47849774	     20.56439832	    112.14709573	     90.31436572
      1.01666670	     -9.50031908	     -3.21857990	     13.92061631	     -0.14995914	      1.18473009	      0.01563970	     10.14076926	     -0.58616371	      3.69260680	     28.95448289	      0.50535106	     14.76274715	    -11.47732137	     -7.49999805	      7.91384812	      0.26622630	     -2.11333941	     28.98639364	      0.50590801	      6.17002978	     -8.10038966	     -7.49999805	      3.36869984	     -1.80485634	      0.22638500	     55.95227958	    -38.89242786	     34.26167791	    113.51687506	     90.23352109	     42.37248623	    -50.77259893	     20.41194416	    113.12900330	     87.69487427
